<svg width="154" height="45" viewBox="0 0 154 45" fill="none" xmlns="http://www.w3.org/2000/svg">
<path d="M19.6591 35H9.98153V8.81818H19.6463C22.3139 8.81818 24.6108 9.34233 26.5369 10.3906C28.4716 11.4304 29.9631 12.9304 31.0114 14.8906C32.0597 16.8423 32.5838 19.1776 32.5838 21.8963C32.5838 24.6236 32.0597 26.9673 31.0114 28.9276C29.9716 30.8878 28.4844 32.392 26.5497 33.4403C24.6151 34.4801 22.3182 35 19.6591 35ZM16.3097 29.6051H19.4162C20.8821 29.6051 22.1222 29.358 23.1364 28.8636C24.1591 28.3608 24.9304 27.5469 25.4503 26.4219C25.9787 25.2884 26.2429 23.7798 26.2429 21.8963C26.2429 20.0128 25.9787 18.5128 25.4503 17.3963C24.9219 16.2713 24.142 15.4616 23.1108 14.9673C22.0881 14.4645 20.8267 14.2131 19.3267 14.2131H16.3097V29.6051ZM40.3949 35H33.5938L42.4276 8.81818H50.8523L59.6861 35H52.8849L46.7358 15.4148H46.5312L40.3949 35ZM39.4872 24.696H53.7031V29.5028H39.4872V24.696ZM62.505 8.81818H70.3416L76.9893 25.0284H77.2962L83.9439 8.81818H91.7805V35H85.6186V18.9176H85.4013L79.1115 34.8338H75.174L68.8842 18.8281H68.6669V35H62.505V8.81818ZM120.439 21.9091C120.439 24.7898 119.885 27.2315 118.777 29.2344C117.669 31.2372 116.169 32.7585 114.277 33.7983C112.394 34.8381 110.28 35.358 107.936 35.358C105.584 35.358 103.466 34.8338 101.583 33.7855C99.6992 32.7372 98.2035 31.2159 97.0955 29.2216C95.9961 27.2187 95.4464 24.7812 95.4464 21.9091C95.4464 19.0284 95.9961 16.5866 97.0955 14.5838C98.2035 12.581 99.6992 11.0597 101.583 10.0199C103.466 8.98011 105.584 8.46023 107.936 8.46023C110.28 8.46023 112.394 8.98011 114.277 10.0199C116.169 11.0597 117.669 12.581 118.777 14.5838C119.885 16.5866 120.439 19.0284 120.439 21.9091ZM113.971 21.9091C113.971 20.2045 113.728 18.7642 113.242 17.5881C112.765 16.4119 112.074 15.5213 111.171 14.9162C110.276 14.3111 109.198 14.0085 107.936 14.0085C106.684 14.0085 105.605 14.3111 104.702 14.9162C103.799 15.5213 103.104 16.4119 102.618 17.5881C102.141 18.7642 101.902 20.2045 101.902 21.9091C101.902 23.6136 102.141 25.054 102.618 26.2301C103.104 27.4062 103.799 28.2969 104.702 28.902C105.605 29.5071 106.684 29.8097 107.936 29.8097C109.198 29.8097 110.276 29.5071 111.171 28.902C112.074 28.2969 112.765 27.4062 113.242 26.2301C113.728 25.054 113.971 23.6136 113.971 21.9091Z" fill="#F15025"/>
</svg>
