<svg width="154" height="45" viewBox="0 0 154 45" fill="none" xmlns="http://www.w3.org/2000/svg">
<path d="M28.304 33.056C27.704 33.344 27.08 33.632 26.432 33.92C25.808 34.184 25.136 34.424 24.416 34.64C23.696 34.832 22.904 34.988 22.04 35.108C21.2 35.228 20.276 35.288 19.268 35.288C16.052 35.288 13.568 34.568 11.816 33.128C10.088 31.688 9.224 29.288 9.224 25.928C9.224 23.984 9.524 22.16 10.124 20.456C10.724 18.728 11.612 17.228 12.788 15.956C13.964 14.66 15.416 13.64 17.144 12.896C18.872 12.152 20.852 11.78 23.084 11.78C24.14 11.78 25.1 11.852 25.964 11.996C26.852 12.14 27.644 12.332 28.34 12.572C29.06 12.788 29.696 13.028 30.248 13.292C30.824 13.556 31.34 13.808 31.796 14.048L30.5 20.744H24.02C24.044 20.504 24.068 20.192 24.092 19.808C24.14 19.424 24.176 19.04 24.2 18.656C24.224 18.248 24.248 17.852 24.272 17.468C24.296 17.084 24.308 16.76 24.308 16.496C24.308 16.304 24.296 16.088 24.272 15.848C24.248 15.584 24.188 15.332 24.092 15.092C23.996 14.852 23.84 14.66 23.624 14.516C23.432 14.348 23.168 14.264 22.832 14.264C22.208 14.264 21.632 14.528 21.104 15.056C20.6 15.56 20.144 16.244 19.736 17.108C19.328 17.948 18.968 18.908 18.656 19.988C18.344 21.068 18.08 22.172 17.864 23.3C17.672 24.404 17.516 25.496 17.396 26.576C17.3 27.656 17.252 28.604 17.252 29.42C17.252 29.66 17.264 29.96 17.288 30.32C17.312 30.68 17.384 31.028 17.504 31.364C17.624 31.7 17.804 31.988 18.044 32.228C18.308 32.468 18.656 32.588 19.088 32.588C19.832 32.588 20.552 32.132 21.248 31.22C21.944 30.284 22.556 28.628 23.084 26.252H29.744L28.304 33.056Z" fill="#222222"/>
<path d="M42.3322 19.124C45.1882 19.124 47.2642 19.628 48.5602 20.636C49.9282 21.692 50.6122 23.444 50.6122 25.892C50.6122 27.404 50.3602 28.772 49.8562 29.996C49.3522 31.196 48.6442 32.192 47.7322 32.984C45.9082 34.52 43.2682 35.288 39.8122 35.288C36.8602 35.288 34.7482 34.724 33.4762 33.596C32.1082 32.42 31.4242 30.656 31.4242 28.304C31.4242 26.744 31.7362 25.328 32.3602 24.056C33.0082 22.784 33.9322 21.728 35.1322 20.888C36.8842 19.712 39.2842 19.124 42.3322 19.124ZM39.8842 32.84C40.4842 32.84 41.0002 32.504 41.4322 31.832C41.8882 31.16 42.2482 30.344 42.5122 29.384C42.7762 28.4 42.9682 27.392 43.0882 26.36C43.2322 25.304 43.3042 24.392 43.3042 23.624C43.3042 22.952 43.2322 22.448 43.0882 22.112C42.9682 21.752 42.6922 21.572 42.2602 21.572C41.6122 21.572 41.0482 21.92 40.5682 22.616C40.1122 23.312 39.7402 24.14 39.4522 25.1C39.1642 26.06 38.9482 27.044 38.8042 28.052C38.6842 29.06 38.6242 29.876 38.6242 30.5C38.6242 32.06 39.0442 32.84 39.8842 32.84ZM61.3472 21.824C61.8512 21.344 62.4152 20.9 63.0392 20.492C63.5912 20.156 64.2512 19.844 65.0192 19.556C65.7872 19.268 66.6512 19.124 67.6112 19.124C68.7632 19.124 69.6152 19.388 70.1672 19.916C70.7432 20.444 71.0672 21.092 71.1392 21.86H71.3552C71.9072 21.356 72.5072 20.9 73.1552 20.492C73.7072 20.156 74.3552 19.844 75.0992 19.556C75.8432 19.268 76.6352 19.124 77.4752 19.124C78.7232 19.124 79.7312 19.472 80.4992 20.168C81.2912 20.84 81.6872 21.716 81.6872 22.796C81.6872 23.348 81.5912 24.08 81.3992 24.992C81.2072 25.904 80.9912 26.9 80.7512 27.98L79.2392 35H72.1472L74.0912 25.604C74.1632 25.244 74.2352 24.896 74.3072 24.56C74.3792 24.224 74.4152 23.948 74.4152 23.732C74.4152 23.396 74.3192 23.12 74.1272 22.904C73.9352 22.664 73.6592 22.544 73.2992 22.544C72.8432 22.544 72.4112 22.712 72.0032 23.048C71.6192 23.36 71.3192 23.624 71.1032 23.84L68.7632 35H62.0312L64.0112 25.604C64.0592 25.292 64.1192 24.98 64.1912 24.668C64.2632 24.332 64.2992 24.032 64.2992 23.768C64.2992 23.408 64.2032 23.12 64.0112 22.904C63.8432 22.664 63.5792 22.544 63.2192 22.544C62.7872 22.544 62.3672 22.7 61.9592 23.012C61.5752 23.324 61.2752 23.588 61.0592 23.804L58.6832 35H51.3392L54.6152 19.52H60.4832L61.1312 21.824H61.3472ZM84.2584 19.52H87.0304L87.3544 18.044C87.6664 16.604 88.1224 15.392 88.7224 14.408C89.3224 13.4 90.0304 12.584 90.8464 11.96C91.6864 11.336 92.6344 10.892 93.6904 10.628C94.7464 10.34 95.8744 10.196 97.0744 10.196C97.8184 10.196 98.6104 10.244 99.4504 10.34C100.29 10.436 101.166 10.592 102.078 10.808L101.502 13.688C100.974 13.616 100.41 13.568 99.8104 13.544C99.2104 13.496 98.7304 13.472 98.3704 13.472C97.8904 13.472 97.4704 13.508 97.1104 13.58C96.7744 13.652 96.4744 13.796 96.2104 14.012C95.9464 14.204 95.7184 14.48 95.5264 14.84C95.3344 15.2 95.1784 15.68 95.0584 16.28L94.3744 19.52H98.1544L97.6864 21.932H93.8704L91.0984 35H83.7544L86.5264 21.932H83.7184L84.2584 19.52ZM108.145 19.124C111.001 19.124 113.077 19.628 114.373 20.636C115.741 21.692 116.425 23.444 116.425 25.892C116.425 27.404 116.173 28.772 115.669 29.996C115.165 31.196 114.457 32.192 113.545 32.984C111.721 34.52 109.081 35.288 105.625 35.288C102.673 35.288 100.561 34.724 99.2887 33.596C97.9207 32.42 97.2367 30.656 97.2367 28.304C97.2367 26.744 97.5487 25.328 98.1727 24.056C98.8207 22.784 99.7447 21.728 100.945 20.888C102.697 19.712 105.097 19.124 108.145 19.124ZM105.697 32.84C106.297 32.84 106.813 32.504 107.245 31.832C107.701 31.16 108.061 30.344 108.325 29.384C108.589 28.4 108.781 27.392 108.901 26.36C109.045 25.304 109.117 24.392 109.117 23.624C109.117 22.952 109.045 22.448 108.901 22.112C108.781 21.752 108.505 21.572 108.073 21.572C107.425 21.572 106.861 21.92 106.381 22.616C105.925 23.312 105.553 24.14 105.265 25.1C104.977 26.06 104.761 27.044 104.617 28.052C104.497 29.06 104.437 29.876 104.437 30.5C104.437 32.06 104.857 32.84 105.697 32.84ZM120.428 19.52H126.296L126.836 22.22H127.088C127.64 21.356 128.348 20.624 129.212 20.024C130.076 19.424 131.216 19.124 132.632 19.124C132.728 19.124 132.872 19.136 133.064 19.16C133.28 19.16 133.508 19.196 133.748 19.268C134.012 19.316 134.276 19.4 134.54 19.52C134.828 19.616 135.104 19.76 135.368 19.952L133.784 27.368H129.86C129.812 25.88 129.68 24.848 129.464 24.272C129.248 23.672 128.9 23.372 128.42 23.372C128.18 23.372 127.916 23.432 127.628 23.552C127.364 23.648 127.088 23.876 126.8 24.236L124.496 35H117.152L120.428 19.52ZM136.57 19.52C137.458 19.328 138.238 19.112 138.91 18.872C139.582 18.632 140.194 18.332 140.746 17.972C141.322 17.612 141.862 17.168 142.366 16.64C142.894 16.112 143.458 15.464 144.058 14.696H147.766L146.722 19.52H149.53L149.062 21.932H146.218L144.742 28.952C144.622 29.504 144.526 29.996 144.454 30.428C144.382 30.86 144.346 31.196 144.346 31.436C144.346 31.916 144.514 32.216 144.85 32.336C145.21 32.456 145.87 32.516 146.83 32.516L146.29 35C146.122 35.048 145.858 35.084 145.498 35.108C145.162 35.132 144.778 35.156 144.346 35.18C143.938 35.228 143.506 35.252 143.05 35.252C142.618 35.276 142.234 35.288 141.898 35.288C141.298 35.288 140.71 35.24 140.134 35.144C139.558 35.072 139.042 34.916 138.586 34.676C138.13 34.412 137.758 34.04 137.47 33.56C137.206 33.08 137.074 32.432 137.074 31.616C137.074 31.328 137.086 30.968 137.11 30.536C137.158 30.104 137.242 29.624 137.362 29.096L138.874 21.932H136.066L136.57 19.52Z" fill="#0080FF"/>
</svg>
